<svg width="56" height="56" viewBox="0 0 56 56" fill="none" xmlns="http://www.w3.org/2000/svg">
<rect x="1" y="55" width="54" height="54" rx="27" transform="rotate(-90 1 55)" stroke="#183B56" stroke-width="2"/>
<path d="M21.1172 29.3281C21.5078 29.7188 22.0938 29.6797 22.4844 29.3281L26.9375 24.6016V35.8125C26.9375 36.3594 27.3672 36.75 27.875 36.75H29.125C29.6719 36.75 30.0625 36.3594 30.0625 35.8125V24.6016L34.5547 29.3281C34.9453 29.6797 35.5312 29.6797 35.9219 29.3281L36.7812 28.4688C37.1328 28.0781 37.1328 27.4922 36.7812 27.1406L29.1641 19.5234C28.8125 19.1719 28.2266 19.1719 27.8359 19.5234L20.2578 27.1406C19.9062 27.4922 19.9062 28.0781 20.2578 28.4688L21.1172 29.3281Z" fill="#183B56"/>
</svg>
