<svg width="1000" height="500" viewBox="0 0 1000 500" fill="none" xmlns="http://www.w3.org/2000/svg">
<rect x="-845" y="-740" width="2691" height="1981" fill="#1565D8"/>
<path opacity="0.2" fill-rule="evenodd" clip-rule="evenodd" d="M1253 1241C1580.5 1241 1846 975.505 1846 648C1846 320.495 1580.5 55 1253 55C925.495 55 660 320.495 660 648C660 975.505 925.495 1241 1253 1241ZM1253 1041C1035.95 1041 860 865.048 860 648C860 430.952 1035.95 255 1253 255C1470.05 255 1646 430.952 1646 648C1646 865.048 1470.05 1041 1253 1041Z" fill="url(#paint0_linear)"/>
<path opacity="0.2" fill-rule="evenodd" clip-rule="evenodd" d="M-252 446C75.5049 446 341 180.505 341 -147C341 -474.505 75.5049 -740 -252 -740C-579.505 -740 -845 -474.505 -845 -147C-845 180.505 -579.505 446 -252 446ZM-252 246C-469.048 246 -645 70.0479 -645 -147C-645 -364.048 -469.048 -540 -252 -540C-34.9521 -540 141 -364.048 141 -147C141 70.0479 -34.9521 246 -252 246Z" fill="url(#paint1_linear)"/>
<defs>
<linearGradient id="paint0_linear" x1="1511.46" y1="223.851" x2="663.162" y2="223.851" gradientUnits="userSpaceOnUse">
<stop stop-color="white"/>
<stop offset="1" stop-color="white" stop-opacity="0.01"/>
</linearGradient>
<linearGradient id="paint1_linear" x1="341" y1="-738.419" x2="-841.838" y2="-738.419" gradientUnits="userSpaceOnUse">
<stop stop-color="white" stop-opacity="0.01"/>
<stop offset="1" stop-color="white"/>
</linearGradient>
</defs>
</svg>
